<mxfile host="app.diagrams.net" modified="2023-10-23T14:54:10.867Z" agent="Mozilla/5.0 (Windows NT 10.0; Win64; x64) AppleWebKit/537.36 (KHTML, like Gecko) Chrome/117.0.0.0 Safari/537.36" version="21.6.9" etag="pqEfZtJcHR4yEp_k7vfB" type="github">
  <diagram name="Page-1" id="d-PnEezT2XwEPgAEBD7f">
    <mxGraphModel>
      <root>
        <mxCell id="0" />
        <mxCell id="1" parent="0" />
      </root>
    </mxGraphModel>
  </diagram>
</mxfile>
